<svg xmlns="http://www.w3.org/2000/svg" xmlns:xlink="http://www.w3.org/1999/xlink" contentStyleType="text/css" height="1562px" preserveAspectRatio="none" style="width:1599px;height:1562px;background:#FFFFFF;" version="1.1" viewBox="0 0 1599 1562" width="1599px" zoomAndPan="magnify"><title>agentic_engineered &#8212; Component architecture</title><defs/><g><text fill="#000000" font-family="sans-serif" font-size="14" font-weight="bold" lengthAdjust="spacing" textLength="337.5449" x="617.7275" y="23.5352">agentic_engineered &#8212; Component architecture</text><text fill="#000000" font-family="sans-serif" font-size="14" font-weight="bold" lengthAdjust="spacing" textLength="306.0518" x="633.4741" y="40.0234">Commit 0ba5c12 &#183; committed source only</text><!--cluster Browser--><g id="cluster_Browser"><polygon fill="none" points="773,176.9766,783,166.9766,1009,166.9766,1009,259.9766,999,269.9766,773,269.9766,773,176.9766" style="stroke:#181818;stroke-width:1;"/><line style="stroke:#181818;stroke-width:1;" x1="999" x2="1009" y1="176.9766" y2="166.9766"/><line style="stroke:#181818;stroke-width:1;" x1="773" x2="999" y1="176.9766" y2="176.9766"/><line style="stroke:#181818;stroke-width:1;" x1="999" x2="999" y1="176.9766" y2="269.9766"/><text fill="#000000" font-family="sans-serif" font-size="14" font-weight="bold" lengthAdjust="spacing" textLength="58.6865" x="857.6567" y="193.5117">Browser</text></g><!--cluster backend--><g id="cluster_backend"><polygon fill="none" points="14,333.9766,24,323.9766,1402,323.9766,1402,1393.4766,1392,1403.4766,14,1403.4766,14,333.9766" style="stroke:#181818;stroke-width:1;"/><line style="stroke:#181818;stroke-width:1;" x1="1392" x2="1402" y1="333.9766" y2="323.9766"/><line style="stroke:#181818;stroke-width:1;" x1="14" x2="1392" y1="333.9766" y2="333.9766"/><line style="stroke:#181818;stroke-width:1;" x1="1392" x2="1392" y1="333.9766" y2="1403.4766"/><text fill="#000000" font-family="sans-serif" font-size="14" font-weight="bold" lengthAdjust="spacing" textLength="282.8301" x="562.585" y="350.5117">Spring Boot backend &#8212; one application</text><text fill="#000000" font-family="sans-serif" font-size="14" font-weight="bold" lengthAdjust="spacing" textLength="182.3418" x="612.8291" y="367">io.dataroots.savingstreak</text></g><!--cluster features--><g id="cluster_features"><rect fill="#F8FAFC" height="577.5" rx="4" ry="4" style="stroke:#181818;stroke-width:1;" width="1024" x="22" y="817.9766"/><text fill="#000000" font-family="sans-serif" font-size="14" font-weight="bold" lengthAdjust="spacing" textLength="294" x="387" y="833.5117">Feature modules &#8212; actual Java packages</text></g><!--entity vite--><g id="elem_vite"><rect fill="#F1F5F9" height="62.9766" rx="4" ry="4" style="stroke:#345778;stroke-width:0.5;" width="227.0654" x="777.5" y="57.9766"/><rect fill="#F1F5F9" height="10" style="stroke:#345778;stroke-width:0.5;" width="15" x="984.5654" y="62.9766"/><rect fill="#F1F5F9" height="2" style="stroke:#345778;stroke-width:0.5;" width="4" x="982.5654" y="64.9766"/><rect fill="#F1F5F9" height="2" style="stroke:#345778;stroke-width:0.5;" width="4" x="982.5654" y="68.9766"/><text fill="#000000" font-family="sans-serif" font-size="14" lengthAdjust="spacing" textLength="164.4453" x="792.5" y="91.5117">Vite development server</text><text fill="#000000" font-family="sans-serif" font-size="14" lengthAdjust="spacing" textLength="187.0654" x="792.5" y="108">:5173 &#183; /api proxy to :8080</text></g><!--entity db--><g id="elem_db"><path d="M1410,1166.4766 C1410,1156.4766 1496.2002,1156.4766 1496.2002,1156.4766 C1496.2002,1156.4766 1582.4004,1156.4766 1582.4004,1166.4766 L1582.4004,1208.4531 C1582.4004,1218.4531 1496.2002,1218.4531 1496.2002,1218.4531 C1496.2002,1218.4531 1410,1218.4531 1410,1208.4531 L1410,1166.4766 " fill="#F1F5F9" style="stroke:#181818;stroke-width:0.5;"/><path d="M1410,1166.4766 C1410,1176.4766 1496.2002,1176.4766 1496.2002,1176.4766 C1496.2002,1176.4766 1582.4004,1176.4766 1582.4004,1166.4766 " fill="none" style="stroke:#181818;stroke-width:0.5;"/><text fill="#000000" font-family="sans-serif" font-size="14" lengthAdjust="spacing" textLength="42.9639" x="1420" y="1194.0117">SQLite</text><text fill="#000000" font-family="sans-serif" font-size="14" lengthAdjust="spacing" textLength="152.4004" x="1420" y="1210.5">data/saving-streak.db</text></g><!--entity ui--><g id="elem_ui"><rect fill="#DBEAFE" height="62.9766" rx="4" ry="4" style="stroke:#345778;stroke-width:0.5;" width="220.4482" x="781" y="198.9766"/><rect fill="#DBEAFE" height="10" style="stroke:#345778;stroke-width:0.5;" width="15" x="981.4482" y="203.9766"/><rect fill="#DBEAFE" height="2" style="stroke:#345778;stroke-width:0.5;" width="4" x="979.4482" y="205.9766"/><rect fill="#DBEAFE" height="2" style="stroke:#345778;stroke-width:0.5;" width="4" x="979.4482" y="209.9766"/><text fill="#000000" font-family="sans-serif" font-size="14" lengthAdjust="spacing" textLength="99.9209" x="796" y="232.5117">React frontend</text><text fill="#000000" font-family="sans-serif" font-size="14" lengthAdjust="spacing" textLength="180.4482" x="796" y="249">App.tsx &#183; api.ts &#183; index.css</text></g><!--entity api--><g id="elem_api"><rect fill="#DBEAFE" height="95.9531" rx="4" ry="4" style="stroke:#345778;stroke-width:0.5;" width="361.8906" x="710" y="371.9766"/><rect fill="#DBEAFE" height="10" style="stroke:#345778;stroke-width:0.5;" width="15" x="1051.8906" y="376.9766"/><rect fill="#DBEAFE" height="2" style="stroke:#345778;stroke-width:0.5;" width="4" x="1049.8906" y="378.9766"/><rect fill="#DBEAFE" height="2" style="stroke:#345778;stroke-width:0.5;" width="4" x="1049.8906" y="382.9766"/><text fill="#000000" font-family="sans-serif" font-size="14" lengthAdjust="spacing" textLength="108.9512" x="725" y="405.5117">web &#8212; REST API</text><text fill="#000000" font-family="sans-serif" font-size="14" lengthAdjust="spacing" textLength="321.8906" x="725" y="422">CustomerController &#183; SavingsAccountController</text><text fill="#000000" font-family="sans-serif" font-size="14" lengthAdjust="spacing" textLength="293.1865" x="725" y="438.4883">RewardController &#183; request/response DTOs</text><text fill="#000000" font-family="sans-serif" font-size="14" lengthAdjust="spacing" textLength="102.9082" x="725" y="454.9766">RefusalsAsHttp</text></g><!--entity persistence--><g id="elem_persistence"><rect fill="#F1F5F9" height="79.4648" rx="4" ry="4" style="stroke:#345778;stroke-width:0.5;" width="316.6094" x="1065.5" y="1004.4766"/><rect fill="#F1F5F9" height="10" style="stroke:#345778;stroke-width:0.5;" width="15" x="1362.1094" y="1009.4766"/><rect fill="#F1F5F9" height="2" style="stroke:#345778;stroke-width:0.5;" width="4" x="1360.1094" y="1011.4766"/><rect fill="#F1F5F9" height="2" style="stroke:#345778;stroke-width:0.5;" width="4" x="1360.1094" y="1015.4766"/><text fill="#000000" font-family="sans-serif" font-size="14" lengthAdjust="spacing" textLength="76.2822" x="1080.5" y="1038.0117">Persistence</text><text fill="#000000" font-family="sans-serif" font-size="14" lengthAdjust="spacing" textLength="191.4609" x="1080.5" y="1054.5">Spring Data JPA + Hibernate</text><text fill="#000000" font-family="sans-serif" font-size="14" lengthAdjust="spacing" textLength="276.6094" x="1080.5" y="1070.9883">Repositories live inside feature packages</text></g><!--entity scheduler--><g id="elem_scheduler"><rect fill="#F3E8FF" height="95.9531" rx="4" ry="4" style="stroke:#345778;stroke-width:0.5;" width="243.7314" x="434" y="675.9766"/><rect fill="#F3E8FF" height="10" style="stroke:#345778;stroke-width:0.5;" width="15" x="657.7314" y="680.9766"/><rect fill="#F3E8FF" height="2" style="stroke:#345778;stroke-width:0.5;" width="4" x="655.7314" y="682.9766"/><rect fill="#F3E8FF" height="2" style="stroke:#345778;stroke-width:0.5;" width="4" x="655.7314" y="686.9766"/><text fill="#000000" font-family="sans-serif" font-size="14" lengthAdjust="spacing" textLength="121.7822" x="449" y="709.5117">Spring scheduling</text><text fill="#000000" font-family="sans-serif" font-size="14" lengthAdjust="spacing" textLength="156.1465" x="449" y="726">OldPointsExpireNightly</text><text fill="#000000" font-family="sans-serif" font-size="14" lengthAdjust="spacing" textLength="203.7314" x="449" y="742.4883">LoyaltyBonusesArePaidNightly</text><text fill="#000000" font-family="sans-serif" font-size="14" lengthAdjust="spacing" textLength="202.002" x="449" y="758.9766">NotificationsAreRaisedNightly</text></g><!--entity dev--><g id="elem_dev"><rect fill="#F3E8FF" height="95.9531" rx="4" ry="4" style="stroke:#345778;stroke-width:0.5;" width="355.9434" x="576" y="523.9766"/><rect fill="#F3E8FF" height="10" style="stroke:#345778;stroke-width:0.5;" width="15" x="911.9434" y="528.9766"/><rect fill="#F3E8FF" height="2" style="stroke:#345778;stroke-width:0.5;" width="4" x="909.9434" y="530.9766"/><rect fill="#F3E8FF" height="2" style="stroke:#345778;stroke-width:0.5;" width="4" x="909.9434" y="534.9766"/><text fill="#000000" font-family="sans-serif" font-size="14" lengthAdjust="spacing" textLength="149.2217" x="591" y="557.5117">Development controls</text><text fill="#000000" font-family="sans-serif" font-size="14" lengthAdjust="spacing" textLength="195.4326" x="591" y="574">DevelopmentClockController</text><text fill="#000000" font-family="sans-serif" font-size="14" lengthAdjust="spacing" textLength="186.6484" x="591" y="590.4883">DevelopmentJobsController</text><text fill="#000000" font-family="sans-serif" font-size="14" lengthAdjust="spacing" textLength="315.9434" x="591" y="606.9766">ScheduledJobs discovers @Scheduled methods</text></g><!--entity clock--><g id="elem_clock"><rect fill="#F3E8FF" height="95.9531" rx="4" ry="4" style="stroke:#345778;stroke-width:0.5;" width="340.3096" x="1054" y="836.4766"/><rect fill="#F3E8FF" height="10" style="stroke:#345778;stroke-width:0.5;" width="15" x="1374.3096" y="841.4766"/><rect fill="#F3E8FF" height="2" style="stroke:#345778;stroke-width:0.5;" width="4" x="1372.3096" y="843.4766"/><rect fill="#F3E8FF" height="2" style="stroke:#345778;stroke-width:0.5;" width="4" x="1372.3096" y="847.4766"/><text fill="#000000" font-family="sans-serif" font-size="14" lengthAdjust="spacing" textLength="35.1709" x="1069" y="870.0117">clock</text><text fill="#000000" font-family="sans-serif" font-size="14" lengthAdjust="spacing" textLength="300.3096" x="1069" y="886.5">ClockConfiguration supplies java.time.Clock</text><text fill="#000000" font-family="sans-serif" font-size="14" lengthAdjust="spacing" textLength="233.3789" x="1069" y="902.9883">Dev: ClockService + MovableClock</text><text fill="#000000" font-family="sans-serif" font-size="14" lengthAdjust="spacing" textLength="278.2705" x="1069" y="919.4766">ClockOffsetRepository persists the offset</text></g><!--entity notifications--><g id="elem_notifications"><rect fill="#EFF6FF" height="79.4648" rx="4" ry="4" style="stroke:#345778;stroke-width:0.5;" width="307.4629" x="694.5" y="844.9766"/><rect fill="#EFF6FF" height="10" style="stroke:#345778;stroke-width:0.5;" width="15" x="981.9629" y="849.9766"/><rect fill="#EFF6FF" height="2" style="stroke:#345778;stroke-width:0.5;" width="4" x="979.9629" y="851.9766"/><rect fill="#EFF6FF" height="2" style="stroke:#345778;stroke-width:0.5;" width="4" x="979.9629" y="855.9766"/><text fill="#000000" font-family="sans-serif" font-size="14" lengthAdjust="spacing" textLength="84.376" x="709.5" y="878.5117">notifications</text><text fill="#000000" font-family="sans-serif" font-size="14" lengthAdjust="spacing" textLength="133.3623" x="709.5" y="895">NotificationsService</text><text fill="#000000" font-family="sans-serif" font-size="14" lengthAdjust="spacing" textLength="267.4629" x="709.5" y="911.4883">Balance thresholds + anniversary alerts</text></g><!--entity loyalty--><g id="elem_loyalty"><rect fill="#EFF6FF" height="79.4648" rx="4" ry="4" style="stroke:#345778;stroke-width:0.5;" width="331.4023" x="445.5" y="1004.4766"/><rect fill="#EFF6FF" height="10" style="stroke:#345778;stroke-width:0.5;" width="15" x="756.9023" y="1009.4766"/><rect fill="#EFF6FF" height="2" style="stroke:#345778;stroke-width:0.5;" width="4" x="754.9023" y="1011.4766"/><rect fill="#EFF6FF" height="2" style="stroke:#345778;stroke-width:0.5;" width="4" x="754.9023" y="1015.4766"/><text fill="#000000" font-family="sans-serif" font-size="14" lengthAdjust="spacing" textLength="44.29" x="460.5" y="1038.0117">loyalty</text><text fill="#000000" font-family="sans-serif" font-size="14" lengthAdjust="spacing" textLength="95.04" x="460.5" y="1054.5">LoyaltyService</text><text fill="#000000" font-family="sans-serif" font-size="14" lengthAdjust="spacing" textLength="291.4023" x="460.5" y="1070.9883">Anniversary calculation + payment records</text></g><!--entity gifting--><g id="elem_gifting"><rect fill="#EFF6FF" height="79.4648" rx="4" ry="4" style="stroke:#345778;stroke-width:0.5;" width="311.127" x="62.5" y="1147.9766"/><rect fill="#EFF6FF" height="10" style="stroke:#345778;stroke-width:0.5;" width="15" x="353.627" y="1152.9766"/><rect fill="#EFF6FF" height="2" style="stroke:#345778;stroke-width:0.5;" width="4" x="351.627" y="1154.9766"/><rect fill="#EFF6FF" height="2" style="stroke:#345778;stroke-width:0.5;" width="4" x="351.627" y="1158.9766"/><text fill="#000000" font-family="sans-serif" font-size="14" lengthAdjust="spacing" textLength="44.625" x="77.5" y="1181.5117">gifting</text><text fill="#000000" font-family="sans-serif" font-size="14" lengthAdjust="spacing" textLength="93.3447" x="77.5" y="1198">GiftingService</text><text fill="#000000" font-family="sans-serif" font-size="14" lengthAdjust="spacing" textLength="271.127" x="77.5" y="1214.4883">Customer-to-customer points transfers</text></g><!--entity rewards--><g id="elem_rewards"><rect fill="#EFF6FF" height="79.4648" rx="4" ry="4" style="stroke:#345778;stroke-width:0.5;" width="303.8467" x="392" y="1147.9766"/><rect fill="#EFF6FF" height="10" style="stroke:#345778;stroke-width:0.5;" width="15" x="675.8467" y="1152.9766"/><rect fill="#EFF6FF" height="2" style="stroke:#345778;stroke-width:0.5;" width="4" x="673.8467" y="1154.9766"/><rect fill="#EFF6FF" height="2" style="stroke:#345778;stroke-width:0.5;" width="4" x="673.8467" y="1158.9766"/><text fill="#000000" font-family="sans-serif" font-size="14" lengthAdjust="spacing" textLength="53.7236" x="407" y="1181.5117">rewards</text><text fill="#000000" font-family="sans-serif" font-size="14" lengthAdjust="spacing" textLength="104.1797" x="407" y="1198">RewardsService</text><text fill="#000000" font-family="sans-serif" font-size="14" lengthAdjust="spacing" textLength="263.8467" x="407" y="1214.4883">Fixed catalogue + voucher redemption</text></g><!--entity deposits--><g id="elem_deposits"><rect fill="#EFF6FF" height="95.9531" rx="4" ry="4" style="stroke:#345778;stroke-width:0.5;" width="289.1289" x="714.5" y="1139.4766"/><rect fill="#EFF6FF" height="10" style="stroke:#345778;stroke-width:0.5;" width="15" x="983.6289" y="1144.4766"/><rect fill="#EFF6FF" height="2" style="stroke:#345778;stroke-width:0.5;" width="4" x="981.6289" y="1146.4766"/><rect fill="#EFF6FF" height="2" style="stroke:#345778;stroke-width:0.5;" width="4" x="981.6289" y="1150.4766"/><text fill="#000000" font-family="sans-serif" font-size="14" lengthAdjust="spacing" textLength="57.5791" x="729.5" y="1173.0117">deposits</text><text fill="#000000" font-family="sans-serif" font-size="14" lengthAdjust="spacing" textLength="249.1289" x="729.5" y="1189.5">DepositsService &#183; WithdrawalsService</text><text fill="#000000" font-family="sans-serif" font-size="14" lengthAdjust="spacing" textLength="169.4287" x="729.5" y="1205.9883">MoneyMovementsService</text><text fill="#000000" font-family="sans-serif" font-size="14" lengthAdjust="spacing" textLength="243.8379" x="729.5" y="1222.4766">Money ledger + remaining principal</text></g><!--entity streaks--><g id="elem_streaks"><rect fill="#EFF6FF" height="79.4648" rx="4" ry="4" style="stroke:#345778;stroke-width:0.5;" width="324.7236" x="712.5" y="1299.9766"/><rect fill="#EFF6FF" height="10" style="stroke:#345778;stroke-width:0.5;" width="15" x="1017.2236" y="1304.9766"/><rect fill="#EFF6FF" height="2" style="stroke:#345778;stroke-width:0.5;" width="4" x="1015.2236" y="1306.9766"/><rect fill="#EFF6FF" height="2" style="stroke:#345778;stroke-width:0.5;" width="4" x="1015.2236" y="1310.9766"/><text fill="#000000" font-family="sans-serif" font-size="14" lengthAdjust="spacing" textLength="48.9521" x="727.5" y="1333.5117">streaks</text><text fill="#000000" font-family="sans-serif" font-size="14" lengthAdjust="spacing" textLength="284.7236" x="727.5" y="1350">StreaksService &#183; WeekAndStreakDerivation</text><text fill="#000000" font-family="sans-serif" font-size="14" lengthAdjust="spacing" textLength="242.9766" x="727.5" y="1366.4883">Weekly progress + streak multiplier</text></g><!--entity accounts--><g id="elem_accounts"><rect fill="#EFF6FF" height="95.9531" rx="4" ry="4" style="stroke:#345778;stroke-width:0.5;" width="309.5479" x="384" y="1291.4766"/><rect fill="#EFF6FF" height="10" style="stroke:#345778;stroke-width:0.5;" width="15" x="673.5479" y="1296.4766"/><rect fill="#EFF6FF" height="2" style="stroke:#345778;stroke-width:0.5;" width="4" x="671.5479" y="1298.4766"/><rect fill="#EFF6FF" height="2" style="stroke:#345778;stroke-width:0.5;" width="4" x="671.5479" y="1302.4766"/><text fill="#000000" font-family="sans-serif" font-size="14" lengthAdjust="spacing" textLength="60.4229" x="399" y="1325.0117">accounts</text><text fill="#000000" font-family="sans-serif" font-size="14" lengthAdjust="spacing" textLength="109.6826" x="399" y="1341.5">AccountsService</text><text fill="#000000" font-family="sans-serif" font-size="14" lengthAdjust="spacing" textLength="269.5479" x="399" y="1357.9883">Customer identity + account ownership</text><text fill="#000000" font-family="sans-serif" font-size="14" lengthAdjust="spacing" textLength="176.4902" x="399" y="1374.4766">Current-account balances</text></g><!--entity points--><g id="elem_points"><rect fill="#EFF6FF" height="79.4648" rx="4" ry="4" style="stroke:#345778;stroke-width:0.5;" width="335.0117" x="30.5" y="1299.9766"/><rect fill="#EFF6FF" height="10" style="stroke:#345778;stroke-width:0.5;" width="15" x="345.5117" y="1304.9766"/><rect fill="#EFF6FF" height="2" style="stroke:#345778;stroke-width:0.5;" width="4" x="343.5117" y="1306.9766"/><rect fill="#EFF6FF" height="2" style="stroke:#345778;stroke-width:0.5;" width="4" x="343.5117" y="1310.9766"/><text fill="#000000" font-family="sans-serif" font-size="14" lengthAdjust="spacing" textLength="42.5195" x="45.5" y="1333.5117">points</text><text fill="#000000" font-family="sans-serif" font-size="14" lengthAdjust="spacing" textLength="88.7783" x="45.5" y="1350">PointsService</text><text fill="#000000" font-family="sans-serif" font-size="14" lengthAdjust="spacing" textLength="295.0117" x="45.5" y="1366.4883">Credit batches + spend + transfer + expiry</text></g><polygon fill="#53677C" points="891,371.9375,895,362.9375,891,366.9375,887,362.9375,891,371.9375" style="stroke:#53677C;stroke-width:1;"/><path d="M891,262.019 C891,291.801 891,331.5127 891,365.9375 " fill="none" style="stroke:#53677C;stroke-width:1;"/><text fill="#000000" font-family="sans-serif" font-size="14" lengthAdjust="spacing" textLength="114.4951" x="937.085" y="295.5117">HTTP /api &#183; JSON</text><text fill="#000000" font-family="sans-serif" font-size="14" lengthAdjust="spacing" textLength="202.665" x="893" y="312">via Vite proxy in development</text><polygon fill="#53677C" points="891,198.5632,895,189.5632,891,193.5632,887,189.5632,891,198.5632" style="stroke:#53677C;stroke-width:1;"/><path d="M891,120.9807 C891,143.9965 891,169.4483 891,192.5632 " fill="none" style="stroke:#53677C;stroke-width:1;stroke-dasharray:7.0,7.0;"/><text fill="#000000" font-family="sans-serif" font-size="14" lengthAdjust="spacing" textLength="215.4824" x="893" y="154.5117">serves frontend in development</text><polygon fill="#53677C" points="1035.3616,816.6398,1040.2071,808.0654,1035.8416,811.6629,1032.2441,807.2974,1035.3616,816.6398" style="stroke:#53677C;stroke-width:1;"/><path d="M1008.1475,468.0911 C1013.8017,473.446 1018.8424,479.3876 1023,485.9766 C1043.947,519.173 1047.2661,601.3489 1044.4872,682.4234 C1043.0977,722.9607 1040.1837,763.2227 1037.1863,796.9492 C1036.8117,801.165 1036.4357,805.2787 1036.0613,809.278 C1035.874,811.2777 1035.6872,813.2488 1035.5011,815.1898 C1035.4545,815.675 1035.984,810.1861 1035.9376,810.6676 " fill="none" style="stroke:#53677C;stroke-width:1;"/><text fill="#000000" font-family="sans-serif" font-size="14" lengthAdjust="spacing" textLength="235.2793" x="1048" y="653.5117">routes requests to feature services</text><polygon fill="#53677C" points="745.6959,523.7859,749.6681,514.7736,745.6804,518.786,741.6681,514.7984,745.6959,523.7859" style="stroke:#53677C;stroke-width:1;"/><path d="M770.0452,468.0379 C764.3286,473.4016 759.2257,479.36 755,485.9766 C747.9303,497.0462 745.6369,504.6925 745.6773,517.786 " fill="none" style="stroke:#53677C;stroke-width:1;stroke-dasharray:7.0,7.0;"/><text fill="#000000" font-family="sans-serif" font-size="14" lengthAdjust="spacing" textLength="264.7012" x="757" y="501.5117">additional /api development endpoints</text><polygon fill="#53677C" points="694.1962,1293.1536,703.8035,1295.3215,699.1002,1292.1784,702.2432,1287.4751,694.1962,1293.1536" style="stroke:#53677C;stroke-width:1;"/><path d="M883.2583,924.0623 C923.4795,970.9481 986.9174,1054.3879 1012,1139.4766 C1024.0641,1180.4021 1038.466,1202.0102 1012,1235.4766 C990.4682,1262.7037 963.2114,1231.9248 936,1253.4766 C928.2094,1259.6468 934.2366,1267.9157 926,1273.4766 C884.795,1301.2957 751.9151,1282.5844 703,1291.4766 C700.0859,1292.0063 703.034,1291.3962 700.081,1291.9834 " fill="none" style="stroke:#53677C;stroke-width:1;"/><polygon fill="#53677C" points="857.2733,1139.2288,860.942,1130.0887,857.0907,1134.2321,852.9473,1130.3808,857.2733,1139.2288" style="stroke:#53677C;stroke-width:1;"/><path d="M849.4155,924.2108 C851.4261,979.2281 854.8859,1073.9006 857.0542,1133.2328 " fill="none" style="stroke:#53677C;stroke-width:1;"/><polygon fill="#53677C" points="718.8175,1004.4566,728.6563,1004.0109,723.29,1002.2212,725.0797,996.8549,718.8175,1004.4566" style="stroke:#53677C;stroke-width:1;"/><path d="M817.1694,924.3384 C799.28,944.9216 775.3215,969.4021 750,986.4766 C740.281,993.0302 735.0508,996.3432 724.1845,1001.7741 " fill="none" style="stroke:#53677C;stroke-width:1;"/><polygon fill="#53677C" points="776.2903,1139.2854,770.4555,1131.3509,771.9475,1136.8075,766.4909,1138.2995,776.2903,1139.2854" style="stroke:#53677C;stroke-width:1;"/><path d="M678.7671,1083.6421 C708.8841,1100.8258 739.4046,1118.2397 771.0789,1136.3119 " fill="none" style="stroke:#53677C;stroke-width:1;"/><polygon fill="#53677C" points="116.3422,1299.9301,110.9636,1291.6796,112.1458,1297.2115,106.6139,1298.3938,116.3422,1299.9301" style="stroke:#53677C;stroke-width:1;"/><path d="M445.4827,1082.6389 C443.9823,1082.9219 442.4878,1083.2012 441,1083.4766 C355.3394,1099.3322 110.0308,1073.6235 53,1139.4766 C39.034,1155.603 43.2135,1216.5204 53,1235.4766 C66.882,1262.3654 86.349,1280.4993 111.3066,1296.6678 " fill="none" style="stroke:#53677C;stroke-width:1;"/><polygon fill="#53677C" points="438.28,1291.4111,431.8197,1283.9771,433.7501,1289.2944,428.4329,1291.2248,438.28,1291.4111" style="stroke:#53677C;stroke-width:1;"/><path d="M300.6655,1227.1053 C342.6476,1246.7231 388.5686,1268.1815 432.8442,1288.871 " fill="none" style="stroke:#53677C;stroke-width:1;"/><polygon fill="#53677C" points="203.1678,1299.7183,208.3221,1291.3259,203.8286,1294.7622,200.3923,1290.2686,203.1678,1299.7183" style="stroke:#53677C;stroke-width:1;"/><path d="M212.8495,1227.1053 C209.875,1249.4141 206.9382,1271.4403 203.9607,1293.771 " fill="none" style="stroke:#53677C;stroke-width:1;"/><polygon fill="#53677C" points="540.5688,1291.4111,544.8665,1282.5494,540.7354,1286.4139,536.8709,1282.2829,540.5688,1291.4111" style="stroke:#53677C;stroke-width:1;"/><path d="M542.7124,1227.1053 C542.0584,1246.7231 541.4584,1264.7249 540.7687,1285.4145 " fill="none" style="stroke:#53677C;stroke-width:1;"/><polygon fill="#53677C" points="275.3905,1299.9393,285.234,1299.6145,279.8901,1297.759,281.7456,1292.4151,275.3905,1299.9393" style="stroke:#53677C;stroke-width:1;"/><path d="M440.4337,1227.1189 C419.0089,1235.5118 396.6746,1244.5561 376,1253.4766 C342.67,1267.8575 311.8232,1282.2859 280.79,1297.323 " fill="none" style="stroke:#53677C;stroke-width:1;"/><polygon fill="#53677C" points="639.2907,1291.4653,649.1375,1291.2672,643.8179,1289.3431,645.742,1284.0236,639.2907,1291.4653" style="stroke:#53677C;stroke-width:1;"/><path d="M758.628,1235.5259 C720.5949,1253.354 682.749,1271.0942 644.7234,1288.9187 " fill="none" style="stroke:#53677C;stroke-width:1;"/><polygon fill="#53677C" points="338.2906,1299.9706,347.9818,1301.7257,343.1484,1298.7866,346.0874,1293.9532,338.2906,1299.9706" style="stroke:#53677C;stroke-width:1;"/><path d="M714.4654,1233.1766 C711.2865,1233.9689 708.1284,1234.7369 705,1235.4766 C560.2275,1269.7035 520.3757,1259.9096 375,1291.4766 C363.038,1294.074 356.5001,1295.5324 344.1199,1298.5498 " fill="none" style="stroke:#53677C;stroke-width:1;"/><polygon fill="#53677C" points="918.8251,1299.6819,927.4381,1294.9053,921.836,1295.6901,921.0512,1290.0879,918.8251,1299.6819" style="stroke:#53677C;stroke-width:1;"/><path d="M918.4375,1235.8204 C922.6393,1241.3403 926.2821,1247.2439 929,1253.4766 C935.9184,1269.342 933.0231,1280.8581 922.4382,1294.8917 " fill="none" style="stroke:#53677C;stroke-width:1;"/><text fill="#000000" font-family="sans-serif" font-size="14" lengthAdjust="spacing" textLength="79.4951" x="934" y="1269.0117">derives rate</text><polygon fill="#53677C" points="834.4623,1235.6342,828.0807,1243.1358,833.0485,1240.4301,835.7542,1245.3979,834.4623,1235.6342" style="stroke:#53677C;stroke-width:1;"/><path d="M844.9173,1299.6843 C840.0067,1291.4446 835.6608,1282.4972 833,1273.4766 C829.3763,1261.1914 829.1388,1253.6925 832.7657,1241.3893 " fill="none" style="stroke:#53677C;stroke-width:1;"/><text fill="#000000" font-family="sans-serif" font-size="14" lengthAdjust="spacing" textLength="88.3887" x="835" y="1269.0117">reads history</text><polygon fill="#53677C" points="1128.9951,1004.2208,1122.9739,996.4269,1124.5948,1001.8466,1119.1751,1003.4674,1128.9951,1004.2208" style="stroke:#53677C;stroke-width:1;"/><path d="M1046.0902,940.187 C1046.2817,940.4162 1046.4739,940.6449 1046.6666,940.8732 C1047.4377,941.7865 1048.2184,942.6932 1049.0085,943.5934 C1052.1689,947.1943 1055.4788,950.6907 1058.9138,954.0837 C1065.7837,960.8697 1073.1541,967.2423 1080.8301,973.2097 C1096.1821,985.1446 1107.4762,992.61 1123.7147,1001.3717 " fill="none" style="stroke:#53677C;stroke-width:1;stroke-dasharray:7.0,7.0;"/><text fill="#000000" font-family="sans-serif" font-size="14" lengthAdjust="spacing" textLength="48.1318" x="1113.2695" y="966.0117">feature</text><text fill="#000000" font-family="sans-serif" font-size="14" lengthAdjust="spacing" textLength="80.6709" x="1097" y="982.5">repositories</text><polygon fill="#53677C" points="1438.1494,1156.3815,1432.0112,1148.6794,1433.7137,1154.0739,1428.3191,1155.7765,1438.1494,1156.3815" style="stroke:#53677C;stroke-width:1;"/><path d="M1298.3252,1083.6421 C1342.3673,1106.5537 1392.0346,1132.3916 1432.8266,1153.6124 " fill="none" style="stroke:#53677C;stroke-width:1;"/><text fill="#000000" font-family="sans-serif" font-size="14" lengthAdjust="spacing" textLength="32.5801" x="1370" y="1117.0117">JDBC</text><polygon fill="#53677C" points="98.2021,1299.8531,92.4241,1291.8772,93.8771,1297.3443,88.41,1298.7973,98.2021,1299.8531" style="stroke:#53677C;stroke-width:1;"/><path d="M444.5512,772.0376 C315.1914,834.0523 110.6873,957.08 41,1139.4766 C19.485,1195.7889 18.1348,1232.1266 62,1273.4766 C72.6637,1283.5288 79.9798,1289.283 93.0121,1296.8425 " fill="none" style="stroke:#53677C;stroke-width:1;"/><text fill="#000000" font-family="sans-serif" font-size="14" lengthAdjust="spacing" textLength="115.6094" x="124" y="1049.5117">expire old points</text><polygon fill="#53677C" points="590.4181,1004.2446,590.1323,994.3999,588.2557,999.7364,582.9192,997.8598,590.4181,1004.2446" style="stroke:#53677C;stroke-width:1;"/><path d="M553.0035,772.1625 C551.4381,814.6313 551.9048,878.4762 564,932.4766 C569.559,957.2953 577.8989,978.1447 587.8232,998.8348 " fill="none" style="stroke:#53677C;stroke-width:1;"/><text fill="#000000" font-family="sans-serif" font-size="14" lengthAdjust="spacing" textLength="117.7969" x="566" y="890.0117">pay anniversaries</text><polygon fill="#53677C" points="776.7351,844.7934,770.7335,836.9844,772.3408,842.4081,766.917,844.0154,776.7351,844.7934" style="stroke:#53677C;stroke-width:1;"/><path d="M642.819,772.1027 C685.5196,795.2809 731.0769,820.0097 771.4619,841.931 " fill="none" style="stroke:#53677C;stroke-width:1;"/><text fill="#000000" font-family="sans-serif" font-size="14" lengthAdjust="spacing" textLength="74.5527" x="713" y="805.5117">raise alerts</text><polygon fill="#53677C" points="548.1025,675.9725,552.1992,667.0161,548.1563,670.9728,544.1997,666.9299,548.1025,675.9725" style="stroke:#53677C;stroke-width:1;"/><path d="M575.6557,620.1626 C569.5223,625.4875 563.9158,631.4039 559,637.9766 C550.9521,648.7371 548.3113,656.5883 548.1671,669.9729 " fill="none" style="stroke:#53677C;stroke-width:1;stroke-dasharray:7.0,7.0;"/><text fill="#000000" font-family="sans-serif" font-size="14" lengthAdjust="spacing" textLength="243.5781" x="561" y="653.5117">invokes discovered jobs on demand</text><polygon fill="#53677C" points="1152.7169,836.3842,1147.4125,828.0858,1148.5451,833.6281,1143.0027,834.7607,1152.7169,836.3842" style="stroke:#53677C;stroke-width:1;"/><path d="M825.3829,620.1348 C913.9785,678.6645 1059.1613,774.5778 1147.7107,833.0769 " fill="none" style="stroke:#53677C;stroke-width:1;"/><text fill="#000000" font-family="sans-serif" font-size="14" lengthAdjust="spacing" textLength="194.2568" x="1054" y="729.5117">advances development clock</text><polygon fill="#53677C" points="1224,1004.2271,1228,995.2271,1224,999.2271,1220,995.2271,1224,1004.2271" style="stroke:#53677C;stroke-width:1;"/><path d="M1224,932.7318 C1224,955.5656 1224,976.629 1224,998.2271 " fill="none" style="stroke:#53677C;stroke-width:1;stroke-dasharray:7.0,7.0;"/><text fill="#000000" font-family="sans-serif" font-size="14" lengthAdjust="spacing" textLength="67.3545" x="1226" y="974.0117">dev offset</text><rect fill="none" height="125.418" id="_legend" rx="4" ry="4" style="stroke:#000000;stroke-width:1;" width="753.1758" x="12" y="1417.4766"/><text fill="#000000" font-family="sans-serif" font-size="14" lengthAdjust="spacing" textLength="513.9463" x="17" y="1436.0117">Components are in-process modules, not independently deployed services.</text><text fill="#000000" font-family="sans-serif" font-size="14" lengthAdjust="spacing" textLength="637.7998" x="17" y="1452.5">Feature-to-feature arrows show service/rule dependencies; the deposits/streaks cycle is real.</text><text fill="#000000" font-family="sans-serif" font-size="14" lengthAdjust="spacing" textLength="743.1758" x="17" y="1468.9883">Web routing and repository access are aggregated to avoid repeating an edge for every controller/repository.</text><text fill="#000000" font-family="sans-serif" font-size="14" lengthAdjust="spacing" textLength="660.7549" x="17" y="1485.4766">Scheduled task classes reside in their respective feature packages; grouped here by runtime role.</text><text fill="#000000" font-family="sans-serif" font-size="14" lengthAdjust="spacing" textLength="608.2822" x="17" y="1501.9648">Clock is injected into time-sensitive services and jobs; those repeated edges are omitted.</text><text fill="#000000" font-family="sans-serif" font-size="14" lengthAdjust="spacing" textLength="665.3076" x="17" y="1518.4531">Purple = scheduling / time / development controls. Development controls require the dev profile.</text><text fill="#000000" font-family="sans-serif" font-size="14" lengthAdjust="spacing" textLength="633.9717" x="17" y="1534.9414">DTO details, startup migrations/seeding and individual entity/repository classes are omitted.</text><!--SRC=[RLVBSjis5DtpAr1dwKgsapfsbMccyaDDFOdjMfvcevaEH48IOWXW0P2ssibCFwB_qdq_fL_ISm6G8cLx8nhtyjptkU0tfUNBDMUARqpbcLiBppNFlFHACBuKsilyDw6NKWjXHS7- - -jlTcxMfT4GCMxpbVGYzvKLCutpjVJiSCwFywFNxDz_M1vEFDvpfhAvO4QhJUPDoRnXS-EzMRD2MW18epFt87N9BL-pESyVbjPKkZWtobZsQXB-EXfknGlpAFMIBRXoeYC9h-N6Qc7PQUUy40jUAJynsb_pjM1JhjrKMBbuMMSg_n3iwBkEC6_2dleDabEjrUkNf6UxlbzE9czxlczLZIs4JMfllZi-EUawFBRMF2RXyPkt9oVd7M49AoXFT8KIoFLITTEWJI6SADdnOJStN3_GuTlZB2C5jdS66qxOFVPdnhQEiRqxmNFF5XQP4BgOwN5P3hrxegBoKkAHdgGknDCmTswFSSSgoLvTd5sE9vVPrwm3zIiw19cjXJBbcavWhnPsfaV7HoTl2ES0aAoqvcb3VJ4wFJmz38WrlVbgSZGvddpVE3mjBLNzp1WVsWJUXQQ4CNXMAfbpQgQPbcPOSCyj5DtGyHflEMy5VmZGpQixOJ-AUK2xkvpUi_7jpsZgog5BgKhQMwCKkWeUJoFUECzHQB-LpVITUEIsw6jRyNibd3-mmi6G4-pY_iQHwg9owDwn- -1z6ToYH3H9X6Ufocnl8ZZD65kRebB21HzHe8ehTiLhtYZ6GYoYiaFgJYVZoNa8iXUcDbukKgRWo7NtNyn4BNECynbNN6Dc_GfOAwCAn_OPrrgYU8xR3UC8pqUJFS1TQyfikFARcVuO7reBumvOpbLUgG00CoNVX5P1PsD6eeq4iuk-b0kFMipqJ_6XHMygD_1caATdLXgfqRmUa-0MC1sG4yGkiWsbT4rDjvcPo2TG6gBboYmh0NzhK-Khm8CYnRga809mGjW5BaHfdFH0laXF2PgQvRFqgyBoHpH6Q_0JNjnyChMWfEmSCoMA9KplmzgQIqtJGJEIovAhu4LZRjUDE0xmOXeVkau8yJ3MHHHSW2NhD5KaK1iQrYMwWZeYeh0rU5DY_8XBO3DXxvhaSM1WCusEUrOk9WlQEdv3tHQLc7a4cxkLB4dDMiW7ZMWUkpGMie7VDHkhFjEtuNTh4kMI1E5Hl11BIPomtxO77iLJAUqce4SKO7_D-gnn2-Ua0r4IQ2Ae2tG7kxeT0-A3d0khkHVKIQ4KnahOKsX-SAX3mCtCzWUvtEAsDDWpd6mvk0zU25DmeueOvIKvBgxbSkNLTlREZAwSS6ChRhaiMccF0I2yuzA9HXmB6cq8MiPlBa-nq7gUN7JuFO_a5zgxFJrN9d_e4cL7TcNchYkQ9bi52N11SBaXcc0_jWA6UyhA96B0RddPgPnieip9z48kAniPnbMqAb23Bs3FePThCJoFod1hnC9pCmxx39F7vqgST-1k5WidV5lEJLChKCiArvmW3Su57rhtq3cqbERSqIhxvQEafg2JWxYX1d5kXiKyHZRVhZ-iry7WVTWG8_RX_lushaqCwzNqvdgcQybPMBLnaKhTtRbPMAN3uNlQqgEuWLsxtdUL2PTijOjaHBSgBropoHpjwQPbNSoJ2w-H2Qh7YF42iuLSOqK5Hxit0DXCmvJrDaUCi1dYvwAMoPwBcksGVllgtSDaE75-tsBtCEab2k_hTG-JNcEhhzWxVKapyIJoLH3BKef155bpt8s2gY0uhAxGPsYvB6lhGrdlaiMeASvCsmxZP5sT03s7wjN56MwMxNXlFOKii1_wMHMDztt59h4ZsjYTom4PwslsAuPGY67I5IAZZg4Ojg-Cq9ErUH3RySVGVo4wCDIhQwwBy1P1nn6ZZgl3AkYrMX1cKULvcWWY3ckMAR6aMKYV9KeiFDYa_TR1Sh74rWECLqwRBrt5lgN8masOTWSKiHtnZCJGLqyQZI6GqXMERYFDv72wuODQL-QnKJsm06KDM8uylWkCqZJ1GTCP-IQ7egIHv8hmF-FgIbDA_OliCBlb9hGZUKm1y2NszfBJ9nb6cDT61aqu5DzZT9bW2tnp88TqBMjf-M0BIEQsLEovUq2QkNE18C8w0w70QqaN8knKVDxLprVSEqQVIIKGS7CIRBvX5ZC3AaOOIf2DmBGKezHV02A8gE0rwGoSmE8Ck4sIGzJK8fGnuqIA2szHJ35y4pz72VosiYKo-4DdUxA3W8sVueLrDcGlBRb0YJGZiKerqUz2HlznpSUHvrAXJHo-HNnLihLSnYM4MWhSFrAvq46obWNTwEFrfvFlDhkz4D0XiMN_1m00]--></g></svg>